<svg width="11" height="11" viewBox="0 0 11 11" fill="none" xmlns="http://www.w3.org/2000/svg">
<path d="M10.4438 1.2567L9.70225 0.511989C9.02247 -0.170663 7.97191 -0.170663 7.29214 0.511989L6.05618 1.81523L9.20787 4.98025L10.5056 3.67701C10.8146 3.36671 11 2.9323 11 2.49788C11 2.06347 10.7528 1.567 10.4438 1.2567Z" fill="#EDEDF0"/>
<path d="M7.84832 4.91819L5.3764 2.43583L0.494382 7.33851C0.185393 7.6488 0 8.08322 0 8.57969V10.5035C0 10.7518 0.185393 11 0.494382 11H2.47191C2.90449 11 3.33708 10.8138 3.70787 10.5035L8.58989 5.60085L7.84832 4.91819Z" fill="#EDEDF0"/>
</svg>
