<svg width="140" height="140" viewBox="0 0 140 140" fill="none" xmlns="http://www.w3.org/2000/svg">
<g clip-path="url(#clip0_0_1361)">
<rect width="140" height="140" rx="25" fill="white"/>
<g clip-path="url(#clip1_0_1361)">
<path d="M32.0459 56.6848V68.25C32.0459 72.6043 35.5591 76.0988 39.8746 76.0988H100.319C104.662 76.0988 108.148 72.5766 108.148 68.25V56.6848V47.0055C108.148 43.8438 109.78 40.9039 112.436 39.2398C112.989 38.8793 113.155 38.1582 112.823 37.6035C110.886 34.4141 103.777 24.7625 88.6451 23.5422C88.2025 23.5145 87.9812 22.9875 88.2578 22.627C88.8387 21.9336 89.8623 20.9906 91.4944 20.6855C91.8817 20.6023 91.9923 20.0754 91.6604 19.8535C89.3367 18.3559 82.6698 15 69.751 15C53.0977 15 32.0459 24.402 32.0459 56.6848Z" fill="#1D85FF"/>
<path d="M117 143.022V157H23V143.022C23 129.987 33.5397 119.42 46.5415 119.42H46.6521C50.6357 119.42 54.1489 117.423 56.2513 114.372C60.0689 117.284 64.827 119.032 70.0277 119.032C75.2284 119.032 80.0141 117.284 83.8593 114.317C85.9617 117.395 89.5027 119.42 93.4862 119.42C106.46 119.42 117 129.987 117 143.022Z" fill="#1D85FF"/>
<path d="M100.236 57.5723V76.8477C100.236 84.5023 97.3866 91.5191 92.7115 96.8441C89.7239 100.255 86.017 102.973 81.7845 104.748C78.1606 106.302 74.1771 107.134 69.9999 107.134C65.8504 107.134 61.8946 106.302 58.2984 104.776C54.0382 102.973 50.276 100.255 47.2883 96.8164C42.6132 91.4637 39.7639 84.4746 39.7639 76.8199V57.5168C39.7639 49.0301 46.6244 42.1797 55.0617 42.1797H84.9381C93.3755 42.2352 100.236 49.0855 100.236 57.5723Z" fill="#E9F6FF"/>
<path d="M83.8316 114.317C79.9864 117.257 75.2006 119.032 69.9999 119.032C64.8269 119.032 60.0411 117.284 56.2236 114.372C57.5238 112.486 58.2984 110.184 58.2984 107.716V104.804C61.8946 106.329 65.8504 107.161 69.9999 107.161C74.1771 107.161 78.1606 106.302 81.7845 104.776V107.716C81.7845 110.184 82.5591 112.459 83.8316 114.317Z" fill="#E9F6FF"/>
</g>
</g>
<rect x="1" y="1" width="138" height="138" rx="24" stroke="#EDEDF0" stroke-opacity="0.2" stroke-width="2"/>
<defs>
<clipPath id="clip0_0_1361">
<rect width="140" height="140" rx="25" fill="white"/>
</clipPath>
<clipPath id="clip1_0_1361">
<rect width="94" height="142" fill="white" transform="translate(23 15)"/>
</clipPath>
</defs>
</svg>
