<svg width="26" height="21" viewBox="0 0 26 21" fill="none" xmlns="http://www.w3.org/2000/svg">
<path d="M18.0067 9.99467C18.2775 10.1297 18.6837 10.1297 19.0898 10.1297C21.5268 10.1297 23.5576 8.10376 23.5576 5.6726C23.5576 3.24143 21.5268 1.21545 19.0898 1.21545C18.9544 1.21545 18.9544 1.21545 18.819 1.21545C19.6314 2.29597 20.0375 3.64662 20.0375 5.13234C20.0375 6.88818 19.3606 8.64402 18.0067 9.99467Z" fill="#D9DBE0"/>
<path d="M20.8498 11.8858H19.9021C21.6622 13.2364 22.7453 15.3975 22.7453 17.8286C22.7453 18.3689 22.6099 18.9092 22.4745 19.4494C23.8284 19.1793 24.6407 18.9092 25.1823 18.639C25.7238 18.3689 25.9946 17.6936 25.9946 17.0182C26.13 14.1819 23.693 11.8858 20.8498 11.8858Z" fill="#D9DBE0"/>
<path d="M6.90485 10.1299C7.31101 10.1299 7.58179 10.1299 7.98796 9.99487C6.76946 8.64422 5.95713 7.02344 5.95713 4.99747C5.95713 3.51175 6.36329 2.1611 7.17563 1.08059C7.17563 1.08059 7.04024 1.08059 6.90485 1.08059C4.46785 1.08059 2.43702 3.10656 2.43702 5.53773C2.43702 7.9689 4.33247 10.1299 6.90485 10.1299Z" fill="#D9DBE0"/>
<path d="M5.9571 11.8858H5.14477C2.30161 11.8858 0 14.1819 0 17.0182C0 17.6936 0.270777 18.3689 0.812332 18.639C1.35389 18.9092 2.16622 19.3144 3.5201 19.4494C3.38472 18.9092 3.24933 18.3689 3.24933 17.8286C3.24933 15.5325 4.19705 13.3715 5.9571 11.8858Z" fill="#D9DBE0"/>
<path d="M9.88344 8.91429C10.6958 9.58961 11.7789 9.99481 12.9974 9.99481C14.2159 9.99481 15.299 9.58961 16.1113 8.91429C17.3298 7.96883 18.0068 6.61818 18.0068 4.9974C18.0068 3.78182 17.6006 2.56623 16.7883 1.75584C15.8405 0.675324 14.4866 0 12.9974 0C11.5081 0 10.0188 0.675324 9.20649 1.75584C8.39416 2.56623 7.85261 3.78182 7.85261 4.9974C7.85261 6.61818 8.66494 7.96883 9.88344 8.91429Z" fill="#D9DBE0"/>
<path d="M15.705 12.1558C15.4342 12.1558 15.1634 12.1558 14.8926 12.1558H10.831C10.5602 12.1558 10.2894 12.1558 10.0186 12.1558C7.17547 12.561 5.00925 14.9922 5.00925 17.8286C5.00925 18.639 5.41542 19.3143 5.95697 19.5844C6.90469 20.1247 8.80013 20.8 12.7264 20.8C16.6527 20.8 18.5481 20.1247 19.4958 19.5844C20.1728 19.1792 20.4436 18.5039 20.4436 17.8286C20.8497 14.9922 18.5481 12.561 15.705 12.1558Z" fill="#D9DBE0"/>
</svg>
