<svg width="140" height="140" viewBox="0 0 140 140" fill="none" xmlns="http://www.w3.org/2000/svg">
<g clip-path="url(#clip0_0_1376)">
<g clip-path="url(#clip1_0_1376)">
<rect width="140" height="140" rx="70" fill="white"/>
<path d="M110.018 70.4C106.079 66.45 103.86 61.1 103.86 55.5V41.475C103.86 26.85 92.0412 15 77.4549 15H69.9998H62.5446C47.9584 15 36.1398 26.85 36.1398 41.475V55.5C36.1398 61.075 33.9207 66.45 29.9812 70.4C20.656 79.75 20.656 94.875 29.9812 104.225C35.3419 109.6 42.6226 112.625 50.2024 112.625H69.9998H89.7971C97.377 112.625 104.658 109.6 110.018 104.225C119.319 94.875 119.319 79.725 110.018 70.4Z" fill="#FF8DAE"/>
<path d="M97.2524 57.25V71.75C97.2524 78.65 94.6842 84.975 90.4704 89.775C87.7776 92.85 84.4365 95.3 80.6216 96.9C77.3553 98.3 73.7649 99.05 69.9749 99.05C66.2349 99.05 62.6694 98.3 59.428 96.925C55.5882 95.3 52.1972 92.85 49.5044 89.75C45.2906 84.925 42.7224 78.625 42.7224 71.725V57.5C42.7224 57.175 42.8471 56.85 43.0715 56.65C43.2959 56.45 43.5951 56.3 43.9192 56.3L53.793 58.25C55.6131 58.6 57.4333 58.775 59.2285 58.775C68.3792 58.775 77.081 54.3 82.3919 46.575C82.7908 46 83.3643 45.75 83.9378 45.75C84.9102 45.75 85.8577 46.475 85.8577 47.675C85.8577 52.3 89.5977 56.05 94.2105 56.05H95.9808C96.7038 56.05 97.2524 56.6 97.2524 57.25Z" fill="#FFEBF0"/>
<path d="M112.362 130.4V143H27.6377V130.4C27.6377 118.65 37.1374 109.125 48.8563 109.125H48.956C52.5464 109.125 55.713 107.325 57.608 104.575C61.0488 107.2 65.3374 108.775 70.025 108.775C74.7125 108.775 79.026 107.2 82.4918 104.525C84.3868 107.3 87.5783 109.125 91.1687 109.125C102.863 109.125 112.362 118.65 112.362 130.4Z" fill="#FF8DAE"/>
<path d="M82.4419 104.525C78.9761 107.175 74.6626 108.775 69.9751 108.775C65.3125 108.775 60.999 107.2 57.5581 104.575C58.73 102.875 59.4281 100.8 59.4281 98.575V95.95C62.6695 97.325 66.235 98.075 69.9751 98.075C73.7401 98.075 77.3305 97.3 80.5968 95.925V98.575C80.5968 100.8 81.27 102.85 82.4419 104.525Z" fill="#FFEBF0"/>
</g>
</g>
<rect x="1" y="1" width="138" height="138" rx="24" stroke="#EDEDF0" stroke-opacity="0.2" stroke-width="2"/>
<defs>
<clipPath id="clip0_0_1376">
<rect width="140" height="140" rx="25" fill="white"/>
</clipPath>
<clipPath id="clip1_0_1376">
<rect width="140" height="140" rx="70" fill="white"/>
</clipPath>
</defs>
</svg>
