<svg width="26" height="26" viewBox="0 0 26 26" fill="none" xmlns="http://www.w3.org/2000/svg">
<path d="M13 14.7959C15.7189 14.7959 17.9231 12.603 17.9231 9.89796C17.9231 7.19289 15.7189 5 13 5C10.2811 5 8.07692 7.19289 8.07692 9.89796C8.07692 12.603 10.2811 14.7959 13 14.7959Z" fill="#D9DBE0"/>
<path d="M15.5641 16.8368H10.4359C7.46154 16.8368 5 19.2858 5 22.245C5 22.9593 5.30769 23.5715 5.92308 23.8777C6.84615 24.3879 8.89744 25.0001 13 25.0001C17.1026 25.0001 19.1538 24.3879 20.0769 23.8777C20.5897 23.5715 21 22.9593 21 22.245C21 19.1838 18.5385 16.8368 15.5641 16.8368Z" fill="#D9DBE0"/>
<circle cx="13" cy="13" r="12" stroke="#D9DBE0" stroke-width="2"/>
</svg>
