<svg width="414" height="152" viewBox="0 0 414 152" fill="none" xmlns="http://www.w3.org/2000/svg">
<path d="M0 0H414V62.8135C414 72.2525 407.401 80.4066 398.169 82.3742L84.4537 149.239C76.2266 150.993 67.6435 149.087 60.9309 144.018L7.94649 104.002C2.94185 100.222 0 94.3134 0 88.0418V0Z" fill="url(#paint0_linear_0_349)"/>
<mask id="mask0_0_349" style="mask-type:alpha" maskUnits="userSpaceOnUse" x="0" y="0" width="414" height="150">
<path d="M0 0H414V62.8135C414 72.2525 407.401 80.4066 398.169 82.3742L84.4537 149.239C76.2266 150.993 67.6435 149.087 60.9309 144.018L7.94649 104.002C2.94185 100.222 0 94.3134 0 88.0418V0Z" fill="url(#paint1_linear_0_349)"/>
</mask>
<g mask="url(#mask0_0_349)">
<path d="M198.738 37.4591C188.024 42.5668 177.118 43.1179 168.063 39.0299C159.008 34.9418 152.208 26.398 148.953 14.984C146.012 4.71565 146.498 -6.32396 150.219 -14.565C152.03 -18.5763 154.66 -21.0463 158.031 -21.9627C161.364 -22.8485 164.897 -22.0663 168.471 -20.4531C172.288 -18.7299 176.191 -16.0596 180.012 -13.4259C183.351 -11.1299 186.524 -8.95609 189.164 -7.76451C191.458 -6.72875 194.955 -5.86708 198.644 -4.94279C207.278 -2.79017 217.077 -0.350331 220.377 6.25493C221.94 9.39869 221.836 12.9854 220.052 16.9371C216.363 25.2163 208.384 32.8737 198.738 37.4591Z" fill="#1172E4" fill-opacity="0.5"/>
<path d="M179.197 82.6387C174.98 85.1575 170.366 85.6324 166.529 83.9001C162.692 82.1677 159.996 78.393 159.096 73.5644C158.274 69.1054 158.983 64.0706 161.098 59.3842C163.214 54.6977 166.531 50.8163 170.41 48.5037C174.636 45.9651 179.261 45.5192 183.078 47.2424C186.915 48.9748 189.611 52.7494 190.51 57.5781C191.333 62.037 190.624 67.0718 188.508 71.7583C186.393 76.4448 183.085 80.3063 179.197 82.6387Z" fill="#1172E4" fill-opacity="0.5"/>
<path d="M148.092 68.5963C143.875 71.1151 139.261 71.59 135.424 69.8576C131.586 68.1253 128.891 64.3506 127.991 59.522C127.169 55.063 127.877 50.0282 129.993 45.3417C132.109 40.6553 135.425 36.7739 139.305 34.4613C143.53 31.9226 148.156 31.4768 151.973 33.2C155.79 34.9232 158.505 38.707 159.405 43.5357C160.227 47.9946 159.519 53.0294 157.403 57.7159C155.287 62.4023 151.98 66.2639 148.092 68.5963Z" fill="#1172E4" fill-opacity="0.5"/>
<path d="M217.961 65.4765C215.374 68.4444 212.041 69.9276 208.554 69.6922C205.764 69.4844 203.106 68.1171 201.108 65.8288C198.353 62.6728 196.99 58.113 197.373 53.3134C197.699 49.3968 199.15 45.749 201.482 43.0728C204.069 40.1049 207.403 38.6217 210.889 38.8571C212.095 38.9472 213.281 39.2436 214.377 39.7386C215.839 40.3986 217.189 41.4144 218.335 42.7205C221.09 45.8765 222.453 50.4363 222.071 55.2359C221.765 59.1617 220.302 62.7804 217.961 65.4765Z" fill="#1172E4" fill-opacity="0.5"/>
<path d="M137.953 26.4643C134.606 29.9256 130.285 31.9189 126.096 31.9401C123.058 31.9553 120.266 30.8859 118.273 28.9107C115.802 26.4803 114.709 22.999 115.225 19.0961C115.689 15.5766 117.445 12.0664 120.187 9.24049C123.534 5.77917 127.856 3.78586 132.045 3.76461C133.782 3.76009 135.437 4.10079 136.899 4.76075C138.016 5.26488 139.002 5.94925 139.867 6.79402C142.359 9.23361 143.443 12.7348 142.927 16.6377C142.451 20.1281 140.675 23.6292 137.953 26.4643Z" fill="#1172E4" fill-opacity="0.5"/>
<path d="M275.235 92.6794C278.002 85.657 282.835 80.6708 288.819 78.6443C294.803 76.6179 301.671 77.6422 308.136 81.5385C313.957 85.0382 318.519 90.3833 320.363 95.8295C321.261 98.4805 321.109 100.77 319.939 102.658C318.773 104.516 316.791 105.685 314.429 106.484C311.907 107.338 308.933 107.789 306.014 108.222C303.465 108.602 301.046 108.968 299.302 109.559C297.786 110.072 295.786 111.188 293.669 112.358C288.72 115.102 283.105 118.218 278.705 116.577C276.615 115.793 275.108 114.08 274.223 111.468C272.348 106.018 272.737 98.996 275.235 92.6794Z" fill="#1172E4" fill-opacity="0.5"/>
<path d="M264.727 63.1927C265.595 60.1924 267.535 57.9704 270.071 57.1116C272.607 56.2529 275.498 56.8393 278.01 58.6946C280.327 60.4117 282.181 63.0605 283.23 66.1576C284.278 69.2548 284.42 72.4983 283.619 75.2564C282.754 78.2698 280.797 80.4833 278.274 81.3375C275.738 82.1962 272.847 81.6098 270.335 79.7545C268.018 78.0374 266.164 75.3886 265.115 72.2914C264.067 69.1943 263.93 65.9639 264.727 63.1927Z" fill="#1172E4" fill-opacity="0.5"/>
<path d="M285.283 56.232C286.152 53.2316 288.091 51.0096 290.627 50.1509C293.163 49.2921 296.054 49.8785 298.567 51.7338C300.883 53.4509 302.737 56.0997 303.786 59.1969C304.835 62.294 304.976 65.5376 304.175 68.2956C303.311 71.309 301.353 73.5225 298.831 74.3767C296.308 75.2309 293.404 74.6491 290.891 72.7937C288.575 71.0767 286.721 68.4278 285.672 65.3307C284.623 62.2336 284.486 59.0031 285.283 56.232Z" fill="#1172E4" fill-opacity="0.5"/>
<path d="M254.143 87.9873C254.058 85.4852 254.965 83.3496 256.689 81.9468C258.077 80.8332 259.906 80.3162 261.828 80.514C264.478 80.7869 267.089 82.3162 268.993 84.7141C270.54 86.6771 271.447 89.0029 271.523 91.2592C271.608 93.7613 270.701 95.8969 268.977 97.2998C268.377 97.7808 267.697 98.1574 266.973 98.4028C266.007 98.7299 264.938 98.843 263.839 98.7325C261.189 98.4596 258.577 96.9303 256.673 94.5324C255.113 92.574 254.223 90.2567 254.143 87.9873Z" fill="#1172E4" fill-opacity="0.5"/>
<path d="M308.272 71.4285C308.327 68.3672 309.473 65.5657 311.411 63.7389C312.818 62.4143 314.58 61.7005 316.363 61.7549C318.567 61.8133 320.585 62.9585 322.038 64.9972C323.348 66.8354 324.054 69.2294 324.005 71.733C323.95 74.7944 322.804 77.5958 320.865 79.4227C320.059 80.1783 319.142 80.7377 318.176 81.0648C317.438 81.3147 316.682 81.4243 315.913 81.4066C313.697 81.3528 311.674 80.1944 310.221 78.1558C308.928 76.3261 308.236 73.9276 308.272 71.4285Z" fill="#1172E4" fill-opacity="0.5"/>
<path d="M7.36108 86.4786C12.622 83.6644 18.0852 83.1339 22.7274 84.9759C27.3697 86.8179 30.9828 90.9499 32.8829 96.6056C34.5988 101.693 34.6114 107.248 32.9351 111.473C32.1191 113.529 30.8557 114.831 29.1843 115.369C27.5313 115.892 25.739 115.581 23.9071 114.854C21.9503 114.078 19.9284 112.828 17.9481 111.594C16.2183 110.519 14.5741 109.501 13.2209 108.964C12.0448 108.498 10.2686 108.146 8.39476 107.768C4.00931 106.888 -0.968187 105.891 -2.77876 102.651C-3.63658 101.109 -3.66792 99.3054 -2.86407 97.2795C-1.20449 93.0363 2.62368 89.0056 7.36108 86.4786Z" fill="#1172E4" fill-opacity="0.5"/>
<path d="M16.1217 63.3373C18.1805 61.9744 20.4863 61.6285 22.4535 62.4091C24.4207 63.1897 25.8621 65.0224 26.4262 67.4261C26.9429 69.646 26.7042 72.1906 25.7509 74.5931C24.7976 76.9956 23.2226 79.0218 21.3285 80.2733C19.2657 81.6465 16.9535 81.978 14.9967 81.2015C13.0295 80.4209 11.5882 78.5883 11.024 76.1846C10.5073 73.9647 10.746 71.42 11.6993 69.0175C12.6526 66.615 14.2236 64.599 16.1217 63.3373Z" fill="#1172E4" fill-opacity="0.5"/>
<path d="M32.0678 69.6646C34.1265 68.3017 36.4323 67.9559 38.3995 68.7364C40.3668 69.517 41.8081 71.3497 42.3723 73.7534C42.8889 75.9733 42.6502 78.518 41.6969 80.9205C40.7436 83.323 39.1686 85.3492 37.2745 86.6007C35.2117 87.9738 32.8996 88.3053 30.9427 87.5289C28.9859 86.7524 27.5342 84.9156 26.97 82.5119C26.4534 80.292 26.692 77.7473 27.6453 75.3448C28.5986 72.9423 30.1696 70.9263 32.0678 69.6646Z" fill="#1172E4" fill-opacity="0.5"/>
<path d="M-2.94374 72.8573C-1.71408 71.3068 -0.0746189 70.4845 1.68165 70.5215C3.0876 70.5609 4.45407 71.1856 5.51044 72.2882C6.96716 73.8088 7.75785 76.0668 7.67748 78.4857C7.60488 80.46 6.96105 82.3255 5.8521 83.7236C4.62244 85.2741 2.98298 86.0964 1.22671 86.0594C0.619126 86.0422 0.016669 85.9209 -0.545394 85.6979C-1.29481 85.4006 -1.99638 84.9219 -2.60208 84.2927C-4.0588 82.772 -4.84949 80.5141 -4.76911 78.0952C-4.70693 76.1167 -4.05673 74.2656 -2.94374 72.8573Z" fill="#1172E4" fill-opacity="0.5"/>
<path d="M38.1392 90.5849C39.7393 88.7689 41.863 87.6674 43.966 87.5592C45.4909 87.4809 46.918 87.9529 47.9644 88.8984C49.2619 90.0613 49.8915 91.784 49.7235 93.7558C49.5722 95.5338 48.7722 97.3373 47.461 98.8201C45.861 100.636 43.7373 101.738 41.6343 101.846C40.7619 101.888 39.923 101.756 39.1736 101.459C38.6011 101.231 38.0899 100.911 37.6358 100.507C36.3279 99.3396 35.7023 97.6067 35.8703 95.6349C36.028 93.8712 36.8384 92.0718 38.1392 90.5849Z" fill="#1172E4" fill-opacity="0.5"/>
</g>
<defs>
<linearGradient id="paint0_linear_0_349" x1="248" y1="127.5" x2="248" y2="7.11794e-07" gradientUnits="userSpaceOnUse">
<stop stop-color="#0075FF"/>
<stop offset="1" stop-color="#5C95FF"/>
</linearGradient>
<linearGradient id="paint1_linear_0_349" x1="207" y1="0" x2="207" y2="138" gradientUnits="userSpaceOnUse">
<stop stop-color="#2589FF"/>
<stop offset="1" stop-color="#4787FF"/>
</linearGradient>
</defs>
</svg>
