<svg width="26" height="22" viewBox="0 0 26 22" fill="none" xmlns="http://www.w3.org/2000/svg">
<path d="M6.77404 12.6567C8.52096 10.5927 10.7351 9.45655 13 9.45655C15.2649 9.45655 17.479 10.5927 19.2259 12.6567C20.8001 14.5123 21.7345 16.8492 21.7345 18.9082C21.7345 19.9104 21.4197 20.6695 20.8052 21.1756C20.1958 21.6717 19.3884 21.8404 18.4946 21.8404C17.5399 21.8404 16.4786 21.6519 15.4375 21.4634C14.5285 21.2996 13.6652 21.1458 13.005 21.1458C12.4312 21.1458 11.6238 21.2947 10.7706 21.4485C8.77487 21.8107 6.50997 22.2225 5.20487 21.1607C4.58532 20.6546 4.27047 19.9005 4.27047 18.9132C4.26032 16.8492 5.19979 14.5123 6.77404 12.6567Z" fill="#D9DBE0"/>
<path d="M6.59627 1.44876C7.23613 0.53088 8.15021 0 9.11 0C10.0698 0 10.9839 0.53088 11.6237 1.44876C12.2128 2.29717 12.5378 3.40854 12.5378 4.57946C12.5378 5.75037 12.2128 6.8667 11.6237 7.71016C10.9839 8.63299 10.0647 9.15891 9.11 9.15891C8.15021 9.15891 7.23613 8.62803 6.59627 7.71016C6.00719 6.86174 5.68219 5.75037 5.68219 4.57946C5.68219 3.40854 6.00719 2.29717 6.59627 1.44876Z" fill="#D9DBE0"/>
<path d="M14.3762 1.44876C15.016 0.53088 15.9301 0 16.8899 0C17.8497 0 18.7638 0.53088 19.4036 1.44876C19.9927 2.29717 20.3177 3.40854 20.3177 4.57946C20.3177 5.75037 19.9927 6.8667 19.4036 7.71016C18.7638 8.63299 17.8446 9.15891 16.8899 9.15891C15.9352 9.15891 15.016 8.62803 14.3762 7.71016C13.7871 6.86174 13.4621 5.75037 13.4621 4.57946C13.4621 3.40854 13.7871 2.29717 14.3762 1.44876Z" fill="#D9DBE0"/>
<path d="M0.152059 8.64288C0.411049 7.78454 0.964578 7.16436 1.71108 6.88651C2.31031 6.66821 2.99079 6.70294 3.62049 6.99071C4.48887 7.38762 5.19982 8.20627 5.57054 9.23826C5.87015 10.0817 5.91078 10.9748 5.67718 11.7488C5.41819 12.6071 4.86466 13.2273 4.11816 13.5051C3.85917 13.5994 3.58495 13.649 3.31072 13.649C2.94509 13.649 2.5693 13.5647 2.20874 13.401C1.34037 13.004 0.629413 12.1854 0.258703 11.1534C-0.0459915 10.3099 -0.0815392 9.42183 0.152059 8.64288Z" fill="#D9DBE0"/>
<path d="M20.4345 9.24331C20.8052 8.21132 21.5162 7.39268 22.3846 6.99576C23.0143 6.70799 23.6947 6.6683 24.294 6.89156C25.0354 7.16445 25.5889 7.78463 25.8479 8.64297C26.0815 9.41696 26.046 10.31 25.7413 11.1535C25.3706 12.1855 24.6596 13.0041 23.7912 13.401C23.4307 13.5648 23.0549 13.6491 22.6892 13.6491C22.4099 13.6491 22.1408 13.5995 21.8818 13.5052C21.1353 13.2323 20.5818 12.6072 20.3228 11.7489C20.0943 10.9798 20.1349 10.0868 20.4345 9.24331Z" fill="#D9DBE0"/>
</svg>
