<svg width="10" height="15" viewBox="0 0 10 15" fill="none" xmlns="http://www.w3.org/2000/svg">
<path d="M5 0C7.75701 0 10 2.38542 10 5.3175C10 7.17283 8.02181 11.2645 6.55763 14.0309C5.87227 15.323 4.12773 15.323 3.45794 14.0309C1.97819 11.2645 0 7.17283 0 5.3175C0 2.38542 2.24299 0 5 0ZM5 7.96797C6.38629 7.96797 7.49221 6.77526 7.49221 5.3175C7.49221 3.85975 6.37072 2.66704 5 2.66704C3.62928 2.66704 2.50779 3.85975 2.50779 5.3175C2.50779 6.79183 3.62928 7.96797 5 7.96797Z" fill="#1D85FF"/>
</svg>
